<?xml version="1.0" encoding="utf-8"?>
<!-- Generator: Adobe Illustrator 28.2.0, SVG Export Plug-In . SVG Version: 6.00 Build 0)  -->
<svg version="1.1" id="Layer_1" xmlns="http://www.w3.org/2000/svg" xmlns:xlink="http://www.w3.org/1999/xlink" x="0px" y="0px"
	 viewBox="0 0 256 251.7" style="enable-background:new 0 0 256 251.7;" xml:space="preserve">
<style type="text/css">
	.st0{fill-rule:evenodd;clip-rule:evenodd;fill:#679198;}
</style>
<path class="st0" d="M128.1,0C57.3,0,0,57.7,0,129.1c0,57.1,36.7,105.3,87.6,122.4c6.4,1.3,8.7-2.8,8.7-6.2c0-3-0.2-13.2-0.2-23.9
	C60.4,229.1,53,206,53,206c-5.7-15-14.2-18.8-14.2-18.8c-11.7-7.9,0.8-7.9,0.8-7.9c12.9,0.9,19.7,13.2,19.7,13.2
	c11.4,19.7,29.9,14.1,37.3,10.7c1.1-8.3,4.5-14.1,8.1-17.3c-28.4-3-58.3-14.1-58.3-63.7c0-14.1,5.1-25.6,13.2-34.6
	c-1.3-3.2-5.7-16.5,1.3-34.2c0,0,10.8-3.4,35.2,13.3c10.4-2.8,21.2-4.3,32-4.3s21.8,1.5,32,4.3c24.4-16.7,35.2-13.2,35.2-13.2
	c7,17.7,2.5,31,1.3,34.2c8.3,9,13.1,20.5,13.1,34.6c0,49.6-29.9,60.5-58.5,63.7c4.7,4.1,8.7,11.8,8.7,23.9c0,17.3-0.2,31.2-0.2,35.5
	c0,3.4,2.3,7.5,8.7,6.2c50.9-17.1,87.6-65.4,87.6-122.4C256.2,57.7,198.7,0,128.1,0z"/>
</svg>
