<?xml version="1.0" encoding="utf-8"?>
<!-- Generator: Adobe Illustrator 28.2.0, SVG Export Plug-In . SVG Version: 6.00 Build 0)  -->
<svg version="1.1" id="Layer_1" xmlns="http://www.w3.org/2000/svg" xmlns:xlink="http://www.w3.org/1999/xlink" x="0px" y="0px"
	 viewBox="0 0 239.6 239.6" style="enable-background:new 0 0 239.6 239.6;" xml:space="preserve">
<style type="text/css">
	.st0{fill:#679198;}
</style>
<path class="st0" d="M214.3,0h-189C11.3,0,0,11.3,0,25.3v189c0,14,11.3,25.3,25.3,25.3h189c14,0,25.3-11.3,25.3-25.3v-189
	C239.6,11.3,228.3,0,214.3,0z M76.9,197.6H43.5V98h33.4V197.6z M77.9,73.3c-1,2.2-2.4,4.1-4.1,5.7s-3.7,2.9-6.1,3.8
	s-4.9,1.4-7.4,1.4c-5.4,0-10-1.8-13.6-5.3c-3.7-3.5-5.5-7.8-5.5-12.7c0-2.4,0.5-4.7,1.4-6.9c1-2.2,2.3-4.1,4.1-5.7
	c1.8-1.6,3.8-2.9,6.1-3.9s4.8-1.5,7.5-1.5c2.6,0,5.1,0.5,7.4,1.4c2.4,0.9,4.4,2.2,6.1,3.8s3.1,3.5,4.1,5.7s1.5,4.6,1.5,7.1
	C79.4,68.7,78.9,71.1,77.9,73.3L77.9,73.3z M193.5,197.6h-33.6v-54.4c0-2.8-0.2-5.5-0.7-8s-1.3-4.8-2.3-6.7
	c-1.1-1.9-2.6-3.5-4.6-4.6s-4.4-1.7-7.4-1.7s-5.6,0.6-7.8,1.7s-4.1,2.7-5.6,4.7c-1.5,2-2.6,4.3-3.4,6.9c-0.8,2.6-1.1,5.3-1.1,8.1v54
	H93.3V98h32.4v13.8h0.4c1.2-2.1,2.8-4.2,4.8-6.3s4.3-3.8,6.9-5.3c2.6-1.5,5.5-2.7,8.7-3.6c3.1-0.9,6.4-1.4,10-1.4
	c6.8,0,12.6,1.2,17.3,3.6c4.8,2.4,8.6,5.5,11.5,9.3s5,8.2,6.3,13.1s1.9,9.9,1.9,14.8V197.6L193.5,197.6z"/>
</svg>
