<?xml version="1.0" encoding="utf-8"?>
<!-- Generator: Adobe Illustrator 28.2.0, SVG Export Plug-In . SVG Version: 6.00 Build 0)  -->
<svg version="1.1" id="Layer_1" xmlns="http://www.w3.org/2000/svg" xmlns:xlink="http://www.w3.org/1999/xlink" x="0px" y="0px"
	 viewBox="0 0 256 256" style="enable-background:new 0 0 256 256;" xml:space="preserve">
<style type="text/css">
	.st0{fill:#679198;}
</style>
<g>
	<g>
		<path class="st0" d="M231.4,0H24.6C11,0,0,11,0,24.6v206.7C0,245,11,256,24.6,256h206.7c13.6,0,24.6-11,24.6-24.6V24.6
			C256,11,245,0,231.4,0z M55.3,45.1h47c5.5,0,10,4.5,10,10s-4.5,10-10,10h-47c-5.5,0-10-4.5-10-10S49.8,45.1,55.3,45.1z M172.7,203
			H55.3c-5.5,0-10-4.5-10-10s4.5-10,10-10h117.4c5.5,0,10,4.5,10,10S178.2,203,172.7,203z M172.7,160.4H55.3c-5.5,0-10-4.5-10-10
			s4.5-10,10-10h117.4c5.5,0,10,4.5,10,10S178.2,160.4,172.7,160.4z M172.7,117.7H55.3c-5.5,0-10-4.5-10-10s4.5-10,10-10h117.4
			c5.5,0,10,4.5,10,10S178.2,117.7,172.7,117.7z"/>
	</g>
</g>
</svg>
