<?xml version="1.0" encoding="UTF-8"?><svg id="Layer_1" xmlns="http://www.w3.org/2000/svg" viewBox="0 0 512 218.74"><defs><style>.cls-1{stroke-width:3px;}.cls-1,.cls-2,.cls-3,.cls-4,.cls-5,.cls-6,.cls-7{stroke:#037185;stroke-miterlimit:10;}.cls-1,.cls-2,.cls-3,.cls-6,.cls-7{fill:none;}.cls-2{stroke-width:3.02px;}.cls-3{stroke-width:1.8px;}.cls-4,.cls-5{fill:#037185;}.cls-4,.cls-6{stroke-width:2px;}.cls-5{stroke-width:1.74px;}.cls-7{stroke-width:4px;}</style></defs><path class="cls-6" d="M97.45,174.58H2.65V19.57h94.81v155.01Z"/><rect class="cls-6" x="23.56" y="140.21" width="18.07" height="18.07"/><rect class="cls-6" x="58.47" y="140.21" width="18.07" height="18.07"/><rect class="cls-6" x="23.56" y="91.45" width="18.07" height="18.07"/><rect class="cls-6" x="58.47" y="91.45" width="18.07" height="18.07"/><rect class="cls-6" x="23.56" y="42.69" width="18.07" height="18.07"/><rect class="cls-6" x="58.47" y="42.69" width="18.07" height="18.07"/><rect class="cls-4" x="2.65" width="94.81" height="19.57"/><path class="cls-6" d="M194.22,174.58h-94.81v-101.7h94.81v101.7Z"/><rect class="cls-6" x="120.32" y="140.21" width="18.07" height="18.07"/><rect class="cls-6" x="155.24" y="140.21" width="18.07" height="18.07"/><rect class="cls-6" x="120.32" y="91.45" width="18.07" height="18.07"/><rect class="cls-6" x="155.24" y="91.45" width="18.07" height="18.07"/><rect class="cls-4" x="99.41" y="51.68" width="94.81" height="19.57"/><polyline class="cls-1" points="509.35 83.81 413.84 9.94 318.32 83.81"/><polyline class="cls-2" points="337.95 69.62 337.95 155.41 397.38 155.41 397.38 92.34 430.29 92.34 430.29 155.41 489.72 155.41 489.72 69.62"/><rect class="cls-5" x="446.51" y="19.12" width="4.91" height="16.23"/><rect class="cls-1" x="357.85" y="102.2" width="18.96" height="18.96"/><rect class="cls-1" x="451.42" y="102.2" width="18.96" height="18.96"/><path class="cls-6" d="M47.23,182.15c21.68,15.05,55,32.78,94.52,30.22,38.44-2.49,44.79-21.72,82.95-23.79,53.51-2.91,70.83,33.27,115.74,27.65,17.52-2.19,43.81-11.32,73.3-47.58"/><path class="cls-3" d="M240.08,172.31c-.72-.16-9.45-2.34-13.29-12.18-3.25-8.33-.77-16.47,1.02-22.33,1.8-5.89,8.66-18.78,16.17-18.78,7.69,0,13.92,11.12,16.13,18.27,1.01,3.25,4.53,12.43,1.02,21.82-3.54,9.48-12.6,15.13-21.06,13.19Z"/><line class="cls-7" x1="243.29" y1="172.69" x2="243.29" y2="179.48"/><path class="cls-3" d="M263.72,178.47c-.72-.16-9.45-2.34-13.29-12.18-3.25-8.33-.77-16.47,1.02-22.33,1.8-5.89,8.66-18.78,16.17-18.78,7.69,0,13.92,11.12,16.13,18.27,1.01,3.25,4.53,12.43,1.02,21.82-3.54,9.48-12.6,15.13-21.06,13.19Z"/><line class="cls-7" x1="266.93" y1="178.85" x2="266.93" y2="185.64"/></svg>